PathFileType	4	(X/Y/Z) abd_2kg_3.trc																										
DataRate	CameraRate	NumFrames	NumMarkers	Units	OrigDataRate	OrigDataStartFrame	OrigNumFrames																					
100	100	29	9	mm	100	470	938																					
Frame#	Time	gu			centelbow			EpL			centpxt8			centijc7			ij			ts			aa			ai		
		X1	Y1	Z1	X2	Y2	Z2	X3	Y3	Z3	X4	Y4	Z4	X5	Y5	Z5	X6	Y6	Z6	X7	Y7	Z7	X8	Y8	Z8	X9	Y9	Z9  
469	4.69	-98.056	63.532	108.873	-24.912	176.618	315.866	-39.484	202.016	302.375	-46.816	-153.158	-8.669	-46.816	31.938	-8.669	0	0	0	-138.168	-8.486	31.712	-137.573	75.398	116.493	-134.352	-85.396	115.114
470	4.7	-98.522	63.079	109.202	-25.669	173.668	317.641	-40.176	199.241	304.412	-46.816	-153.158	-8.669	-46.816	31.938	-8.669	0	0	0	-137.86	-8.18	31.324	-137.617	75.08	116.719	-134.198	-85.696	114.17
471	4.71	-98.913	62.902	109.326	-26.316	171.138	319.085	-40.783	196.865	306.116	-46.816	-153.158	-8.669	-46.816	31.938	-8.669	0	0	0	-137.547	-7.674	30.717	-137.624	74.944	116.736	-133.889	-85.802	112.987
472	4.72	-99.032	62.771	109.675	-26.753	168.616	320.761	-41.168	194.5	308.046	-46.816	-153.158	-8.669	-46.816	31.938	-8.669	0	0	0	-137.286	-7.09	30.347	-137.631	74.899	116.965	-133.624	-85.809	112.05
473	4.73	-98.861	62.39	110.351	-26.994	165.638	322.859	-41.32	191.696	310.402	-46.816	-153.158	-8.669	-46.816	31.938	-8.669	0	0	0	-137.071	-6.574	30.276	-137.618	74.799	117.47	-133.509	-85.867	111.426
474	4.74	-98.632	61.918	110.986	-27.246	162.47	324.943	-41.465	188.709	312.746	-46.816	-153.158	-8.669	-46.816	31.938	-8.669	0	0	0	-136.953	-6.422	30.261	-137.613	74.327	118.033	-133.617	-86.296	110.851
475	4.75	-98.424	61.815	111.179	-27.549	159.788	326.498	-41.676	186.192	314.554	-46.816	-153.158	-8.669	-46.816	31.938	-8.669	0	0	0	-136.929	-6.642	30.009	-137.633	73.45	118.381	-133.863	-87.12	110.006
476	4.76	-98.174	62.017	111.051	-27.85	157.509	327.662	-41.892	184.067	315.96	-46.816	-153.158	-8.669	-46.816	31.938	-8.669	0	0	0	-136.93	-6.756	29.432	-137.702	72.635	118.434	-134.059	-87.867	108.794
477	4.77	-98.021	61.894	111.24	-28.37	154.786	329.194	-42.299	181.508	317.733	-46.816	-153.158	-8.669	-46.816	31.938	-8.669	0	0	0	-137.018	-6.39	28.787	-137.947	72.258	118.444	-134.23	-88.158	107.476
478	4.78	-98.197	61.254	112.041	-29.383	151.316	331.444	-43.173	178.216	320.232	-46.816	-153.158	-8.669	-46.816	31.938	-8.669	0	0	0	-137.239	-5.722	28.328	-138.39	72.157	118.651	-134.515	-88.155	106.322
479	4.79	-98.65	60.461	112.983	-30.707	147.57	333.844	-44.368	174.646	322.903	-46.816	-153.158	-8.669	-46.816	31.938	-8.669	0	0	0	-137.343	-5.067	27.959	-138.727	72.041	118.938	-134.769	-88.159	105.255
480	4.8	-98.974	59.704	113.603	-31.753	143.89	335.816	-45.331	171.124	325.168	-46.816	-153.158	-8.669	-46.816	31.938	-8.669	0	0	0	-137.071	-4.508	27.491	-138.664	71.841	119.105	-134.742	-88.242	104.099
481	4.81	-98.955	58.991	114.03	-32.281	140.326	337.466	-45.824	167.697	327.13	-46.816	-153.158	-8.669	-46.816	31.938	-8.669	0	0	0	-136.638	-4.084	27.058	-138.408	71.517	119.288	-134.606	-88.443	102.986
482	4.82	-98.962	58.411	114.486	-32.738	136.938	339.057	-46.284	164.429	329.048	-46.816	-153.158	-8.669	-46.816	31.938	-8.669	0	0	0	-136.472	-3.924	27.028	-138.394	70.927	119.865	-134.752	-88.9	102.273
483	4.83	-99.372	58.016	114.83	-33.507	133.741	340.467	-47.081	161.339	330.797	-46.816	-153.158	-8.669	-46.816	31.938	-8.669	0	0	0	-136.642	-4.01	27.408	-138.695	70.071	120.857	-135.181	-89.608	101.949
484	4.84	-99.948	57.849	114.905	-34.351	130.783	341.537	-47.968	158.479	332.214	-46.816	-153.158	-8.669	-46.816	31.938	-8.669	0	0	0	-136.906	-3.976	27.585	-139.052	69.308	121.658	-135.536	-90.205	101.397
485	4.85	-100.246	58.05	114.812	-34.899	128.279	342.369	-48.575	156.06	333.389	-46.816	-153.158	-8.669	-46.816	31.938	-8.669	0	0	0	-137.059	-3.438	27.047	-139.262	69.04	121.741	-135.59	-90.291	100.122
486	4.86	-100.223	58.51	114.782	-35.231	126.147	343.224	-48.961	154.003	334.565	-46.816	-153.158	-8.669	-46.816	31.938	-8.669	0	0	0	-137.035	-2.54	26.069	-139.29	69.154	121.356	-135.445	-89.989	98.428
487	4.87	-100.073	58.754	115.071	-35.639	123.828	344.413	-49.39	151.764	336.05	-46.816	-153.158	-8.669	-46.816	31.938	-8.669	0	0	0	-136.853	-1.872	25.374	-139.2	69.082	121.211	-135.33	-89.879	97.054
488	4.88	-99.869	58.634	115.637	-36.167	121.094	345.909	-49.898	149.121	337.823	-46.816	-153.158	-8.669	-46.816	31.938	-8.669	0	0	0	-136.565	-1.718	25.219	-139.071	68.531	121.571	-135.307	-90.252	96.253
489	4.89	-99.664	58.527	116.121	-36.697	118.313	347.304	-50.384	146.439	339.492	-46.816	-153.158	-8.669	-46.816	31.938	-8.669	0	0	0	-136.294	-1.767	25.162	-138.996	67.765	122.027	-135.313	-90.829	95.537
490	4.9	-99.568	58.501	116.481	-37.236	115.526	348.531	-50.854	143.762	341	-46.816	-153.158	-8.669	-46.816	31.938	-8.669	0	0	0	-136.21	-1.604	24.811	-139.099	67.132	122.237	-135.384	-91.24	94.456
491	4.91	-99.631	58.09	117.028	-37.889	112.224	349.927	-51.399	140.586	342.682	-46.816	-153.158	-8.669	-46.816	31.938	-8.669	0	0	0	-136.339	-1.121	24.291	-139.384	66.735	122.327	-135.565	-91.379	93.128
492	4.92	-99.801	57.164	117.814	-38.686	108.328	351.548	-52.069	136.822	344.591	-46.816	-153.158	-8.669	-46.816	31.938	-8.669	0	0	0	-136.47	-0.464	23.901	-139.641	66.492	122.55	-135.739	-91.347	91.912
493	4.93	-100.064	56.307	118.507	-39.612	104.584	353.026	-52.892	133.195	346.355	-46.816	-153.158	-8.669	-46.816	31.938	-8.669	0	0	0	-136.381	0.093	23.803	-139.671	66.204	123.016	-135.776	-91.369	91.034
494	4.94	-100.494	56.125	118.841	-40.675	101.717	354.058	-53.903	130.415	347.668	-46.816	-153.158	-8.669	-46.816	31.938	-8.669	0	0	0	-136.145	0.273	23.985	-139.572	65.611	123.704	-135.77	-91.711	90.502
495	4.95	-101.044	56.506	118.96	-41.782	99.533	354.801	-54.991	128.301	348.691	-46.816	-153.158	-8.669	-46.816	31.938	-8.669	0	0	0	-136.04	0.05	24.223	-139.619	64.665	124.407	-135.896	-92.415	90.07
496	4.96	-101.481	56.72	119.22	-42.718	97.113	355.651	-55.891	125.956	349.826	-46.816	-153.158	-8.669	-46.816	31.938	-8.669	0	0	0	-136.104	-0.133	24.147	-139.817	63.757	124.791	-136.033	-93.071	89.325
497	4.97	-101.571	56.289	119.745	-43.317	93.867	356.766	-56.414	122.803	351.237	-46.816	-153.158	-8.669	-46.816	31.938	-8.669	0	0	0	-136.044	0.251	23.569	-139.854	63.342	124.712	-135.847	-93.197	88.013
